<svg width="86" height="49" viewBox="0 0 86 49" fill="none" xmlns="http://www.w3.org/2000/svg">
<path d="M16.448 30.2412C15.7588 30.2411 15.0978 29.9664 14.6105 29.4777C14.1231 28.989 13.8492 28.3262 13.8491 27.635V21.2733C13.8502 20.5828 14.1245 19.921 14.6118 19.4332C15.0991 18.9454 15.7595 18.6714 16.448 18.6716H60.0745C60.7631 18.6715 61.4235 18.9454 61.9108 19.4332C62.3981 19.921 62.6724 20.5828 62.6734 21.2733V27.635C62.6733 28.3262 62.3995 28.989 61.9121 29.4777C61.4247 29.9664 60.7637 30.241 60.0745 30.2412H16.448Z" fill="white"/>
<path d="M24.1134 30.4746C24.8775 30.8666 25.2774 30.136 24.9619 29.7039C24.774 29.4499 24.2214 28.6606 23.5498 28.1127" fill="white"/>
<path d="M24.5294 30.7208C24.3627 30.7167 24.1993 30.6731 24.0527 30.5935C24.0371 30.5856 24.0232 30.5746 24.0119 30.5612C24.0005 30.5478 23.9919 30.5324 23.9865 30.5156C23.9812 30.4989 23.9791 30.4813 23.9805 30.4638C23.9819 30.4464 23.9867 30.4293 23.9947 30.4137C24.0027 30.3981 24.0136 30.3842 24.027 30.3728C24.0403 30.3614 24.0557 30.3528 24.0724 30.3474C24.0891 30.342 24.1066 30.3399 24.1241 30.3413C24.1415 30.3427 24.1585 30.3476 24.1741 30.3556C24.4527 30.4985 24.6945 30.484 24.8374 30.3159C24.899 30.2416 24.9341 30.1488 24.9372 30.0522C24.9403 29.9557 24.9111 29.8608 24.8544 29.7827C24.8392 29.7622 24.8209 29.7373 24.8003 29.709C24.5813 29.4095 24.0683 28.708 23.4657 28.2163C23.4521 28.2052 23.4408 28.1916 23.4325 28.1761C23.4242 28.1607 23.419 28.1438 23.4172 28.1263C23.4154 28.1089 23.4171 28.0912 23.4221 28.0744C23.4271 28.0576 23.4354 28.0419 23.4464 28.0283C23.4575 28.0147 23.4711 28.0034 23.4865 27.995C23.5019 27.9867 23.5188 27.9815 23.5362 27.9797C23.5536 27.9779 23.5712 27.9796 23.5879 27.9846C23.6047 27.9896 23.6203 27.9979 23.6339 28.009C24.2631 28.5222 24.7902 29.243 25.0152 29.5509C25.0356 29.5787 25.0535 29.6033 25.069 29.6242C25.161 29.751 25.2081 29.905 25.2029 30.0617C25.1977 30.2185 25.1405 30.369 25.0403 30.4893C24.9777 30.5636 24.8993 30.623 24.8109 30.663C24.7226 30.7031 24.6264 30.7228 24.5294 30.7208Z" fill="#353F58"/>
<path d="M53.155 30.2652C53.155 30.2652 53.0884 29.1648 53.0306 28.7371C52.92 27.9196 52.1849 27.843 51.9436 28.4346C51.7417 27.7797 50.8104 27.9624 50.8182 28.8797C50.8186 28.9282 50.819 28.9777 50.8195 29.0277C50.5929 28.4205 49.7 28.6142 49.7076 29.5123C49.712 30.1315 49.7387 30.4077 49.7564 30.724C49.7686 30.937 49.8551 31.1388 50.0008 31.2943L50.3206 31.6462C50.4052 31.7379 50.5072 31.8116 50.6206 31.8629C50.7341 31.9143 50.8567 31.9422 50.9812 31.9451C51.1056 31.948 51.2294 31.9258 51.3451 31.8798C51.4608 31.8339 51.5662 31.765 51.6549 31.6774C51.8122 31.7647 51.9914 31.8043 52.1708 31.7915C52.3501 31.7786 52.5219 31.7139 52.6653 31.605C52.7806 31.678 52.9105 31.7248 53.0458 31.7419C53.1811 31.759 53.3185 31.7461 53.4482 31.7041C53.7903 31.5928 54.0969 31.2854 54.1457 30.929L54.1591 30.3899" fill="white"/>
<path d="M51.0036 32.0784C50.8568 32.0787 50.7116 32.0485 50.5772 31.9896C50.4427 31.9308 50.3219 31.8445 50.2224 31.7364L49.9023 31.3842C49.7365 31.206 49.6379 30.9755 49.6234 30.7323C49.6197 30.6663 49.6157 30.6031 49.6115 30.538C49.5957 30.2896 49.5778 30.0081 49.5743 29.5133C49.5693 28.9358 49.8983 28.6155 50.2266 28.5545C50.3085 28.5383 50.3928 28.539 50.4744 28.5565C50.5561 28.574 50.6333 28.608 50.7015 28.6563C50.7742 28.21 51.0737 27.9627 51.3564 27.9186C51.4682 27.8997 51.5831 27.9122 51.6883 27.9548C51.7935 27.9974 51.8848 28.0684 51.9522 28.1599C52.0178 28.0744 52.1043 28.0072 52.2033 27.965C52.3024 27.9228 52.4106 27.907 52.5176 27.919C52.7817 27.9527 53.0898 28.1806 53.1627 28.7192C53.2205 29.1469 53.2853 30.212 53.288 30.2572C53.2894 30.2749 53.2873 30.2927 53.2817 30.3095C53.2762 30.3264 53.2674 30.342 53.2557 30.3554C53.2441 30.3688 53.23 30.3797 53.2141 30.3876C53.1982 30.3954 53.1809 30.4 53.1632 30.4011C53.1456 30.4022 53.1278 30.3997 53.1111 30.3938C53.0944 30.388 53.079 30.3788 53.0659 30.3669C53.0527 30.355 53.0421 30.3406 53.0346 30.3246C53.027 30.3085 53.0228 30.2911 53.022 30.2733C53.0213 30.2624 52.955 29.1729 52.8985 28.7551C52.8459 28.3665 52.6498 28.2054 52.4839 28.1842C52.3112 28.1622 52.1517 28.2778 52.067 28.4853C52.0566 28.5108 52.0386 28.5325 52.0155 28.5473C51.9923 28.5622 51.9652 28.5695 51.9377 28.5683C51.9103 28.567 51.8839 28.5574 51.8622 28.5405C51.8404 28.5237 51.8244 28.5005 51.8163 28.4742C51.7388 28.2232 51.5489 28.1592 51.3973 28.1827C51.1728 28.2177 50.9478 28.4465 50.9515 28.8786L50.9528 29.0266C50.9531 29.058 50.9423 29.0885 50.9224 29.1128C50.9025 29.1371 50.8747 29.1535 50.8439 29.1593C50.813 29.165 50.7812 29.1597 50.7539 29.1442C50.7266 29.1287 50.7056 29.1041 50.6947 29.0747C50.6084 28.8435 50.4215 28.7901 50.2752 28.8173C50.0564 28.858 49.8372 29.0883 49.8408 29.5113C49.8443 29.9988 49.862 30.2763 49.8775 30.5212C49.8817 30.5869 49.8858 30.6509 49.8895 30.7166C49.8995 30.8982 49.9732 31.0704 50.0977 31.2027L50.4191 31.5563C50.4916 31.6346 50.579 31.6976 50.6761 31.7415C50.7733 31.7854 50.8782 31.8092 50.9848 31.8117C51.0913 31.8141 51.1973 31.7951 51.2963 31.7557C51.3954 31.7163 51.4855 31.6574 51.5615 31.5824C51.5819 31.5622 51.6084 31.5492 51.6368 31.5453C51.6653 31.5414 51.6942 31.5468 51.7193 31.5607C51.8541 31.6356 52.0077 31.6695 52.1614 31.6585C52.3151 31.6474 52.4622 31.5919 52.585 31.4986C52.6067 31.4822 52.6328 31.4729 52.6598 31.4718C52.6869 31.4707 52.7137 31.4779 52.7366 31.4924C52.8354 31.555 52.9467 31.595 53.0626 31.6096C53.1785 31.6242 53.2962 31.6131 53.4074 31.577C53.7169 31.4763 53.9704 31.1998 54.0126 30.9179L54.0257 30.3868C54.0265 30.3519 54.041 30.3187 54.0659 30.2944C54.0908 30.27 54.1242 30.2564 54.159 30.2564H54.1623C54.1977 30.2573 54.2312 30.2722 54.2556 30.2979C54.2799 30.3235 54.2931 30.3579 54.2922 30.3933L54.2789 30.9324C54.2788 30.9373 54.2784 30.9423 54.2777 30.9472C54.2247 31.3339 53.9005 31.6975 53.4893 31.8314C53.3553 31.8749 53.214 31.8913 53.0737 31.8795C52.9333 31.8678 52.7967 31.8282 52.6717 31.7631C52.5246 31.8564 52.357 31.9119 52.1835 31.9249C52.01 31.9378 51.8359 31.9078 51.6767 31.8375C51.5742 31.9221 51.4566 31.9865 51.3302 32.0273C51.2246 32.0612 51.1144 32.0784 51.0036 32.0784Z" fill="#353F58"/>
<path d="M56.5845 44.9622L56.5757 44.8998C56.4468 43.5811 55.4206 42.4629 54.0922 42.1377C52.4218 42.0716 50.86 40.8663 50.2702 39.291C50.0244 39.4084 44.3273 42.0269 43.8013 42.3179L44.2607 44.9622H47.0285L46.6198 42.748L48.3568 44.9577L56.5845 44.9622Z" fill="#226E50"/>
<path d="M23.5317 42.2045H21.7013C20.986 42.2045 20.6173 41.3491 21.106 40.8279L21.2 40.7271C21.0128 40.6791 16.0897 36.976 15.1077 36.2695L11.0879 44.9621H14.0289L15.1929 42.8015L17.4542 44.9621L25.4908 44.9666V44.9042C25.5886 43.6167 24.7711 42.5253 23.5317 42.2045Z" fill="#226E50"/>
<path d="M47.2196 30.2697L51.0713 39.0237L43.3456 42.4362L38.9386 32.4214L36.167 30.2697" fill="white"/>
<path d="M43.3457 42.5699C43.3199 42.5699 43.2946 42.5623 43.2729 42.5482C43.2512 42.534 43.2341 42.5138 43.2237 42.4901L38.8302 32.5065L36.0854 30.3755C36.0574 30.3538 36.0392 30.3218 36.0348 30.2867C36.0303 30.2515 36.04 30.216 36.0616 30.188C36.0832 30.16 36.1151 30.1417 36.1502 30.1372C36.1852 30.1328 36.2206 30.1424 36.2486 30.1642L39.0202 32.3159C39.0377 32.3295 39.0515 32.3473 39.0605 32.3676L43.4138 42.2602L50.8956 38.9555L47.0975 30.3236C47.0904 30.3075 47.0865 30.2902 47.0861 30.2727C47.0857 30.2551 47.0888 30.2377 47.0951 30.2213C47.1015 30.205 47.1109 30.19 47.123 30.1773C47.1351 30.1646 47.1496 30.1544 47.1656 30.1474C47.1816 30.1403 47.1989 30.1364 47.2164 30.136C47.2339 30.1356 47.2513 30.1387 47.2676 30.145C47.2839 30.1514 47.2988 30.1609 47.3115 30.173C47.3241 30.1851 47.3343 30.1996 47.3413 30.2157L51.1934 38.9697C51.2005 38.9858 51.2043 39.0031 51.2047 39.0207C51.2051 39.0382 51.202 39.0557 51.1957 39.0721C51.1893 39.0884 51.1798 39.1034 51.1677 39.1161C51.1556 39.1287 51.1412 39.1389 51.1251 39.146L43.3994 42.5585C43.3825 42.566 43.3642 42.5699 43.3457 42.5699Z" fill="#353F58"/>
<path d="M31.3951 30.2696L31.1241 31.0804C30.9139 31.7071 30.561 32.276 30.0934 32.7421L21.6169 41.0774L14.7441 36.07L18.8313 31.9001L19.7437 30.262L31.3951 30.2696Z" fill="white"/>
<path d="M21.6167 41.2111C21.5886 41.2111 21.5612 41.2021 21.5385 41.1855L14.6657 36.1781C14.6502 36.1668 14.6374 36.1523 14.628 36.1355C14.6186 36.1188 14.6129 36.1002 14.6113 36.081C14.6097 36.0619 14.6123 36.0426 14.6188 36.0246C14.6253 36.0065 14.6356 35.99 14.649 35.9763L18.7236 31.8192L19.6273 30.1968C19.6389 30.1761 19.6557 30.1588 19.6762 30.1467C19.6967 30.1347 19.7199 30.1284 19.7437 30.1284L31.3951 30.1359C31.4163 30.1359 31.4371 30.141 31.4559 30.1507C31.4747 30.1603 31.4909 30.1744 31.5033 30.1916C31.5156 30.2088 31.5237 30.2287 31.5268 30.2496C31.53 30.2706 31.5281 30.292 31.5214 30.3121L31.2504 31.1229C31.0329 31.7688 30.6691 32.3553 30.1876 32.8366L21.71 41.1728C21.6852 41.1973 21.6517 41.2111 21.6167 41.2111ZM14.9475 36.0531L21.6039 40.9029L30 32.6467C30.4518 32.1949 30.7933 31.6444 30.9975 31.0382L31.2099 30.4031L19.8219 30.3957L18.9477 31.9653C18.9419 31.9757 18.9348 31.9853 18.9264 31.9938L14.9475 36.0531Z" fill="#353F58"/>
<path d="M49.7073 30.4033H25.0215C24.9861 30.4033 24.9522 30.3892 24.9272 30.3641C24.9022 30.3391 24.8882 30.3051 24.8882 30.2696C24.8882 30.2342 24.9022 30.2002 24.9272 30.1751C24.9522 30.1501 24.9861 30.136 25.0215 30.136H49.7073C49.7427 30.136 49.7766 30.1501 49.8016 30.1751C49.8266 30.2002 49.8406 30.2342 49.8406 30.2696C49.8406 30.3051 49.8266 30.3391 49.8016 30.3641C49.7766 30.3892 49.7427 30.4033 49.7073 30.4033Z" fill="#353F58"/>
<path d="M18.1474 30.4033H16.3704C15.646 30.4025 14.9515 30.1135 14.4393 29.5999C13.9271 29.0863 13.639 28.3899 13.6382 27.6635V21.3062C13.6382 21.2707 13.6522 21.2368 13.6772 21.2117C13.7022 21.1866 13.7361 21.1725 13.7715 21.1725C13.8068 21.1725 13.8407 21.1866 13.8657 21.2117C13.8907 21.2368 13.9047 21.2707 13.9047 21.3062V27.6635C13.9055 28.319 14.1655 28.9474 14.6277 29.411C15.09 29.8745 15.7167 30.1352 16.3704 30.136H18.1474C18.1828 30.136 18.2167 30.1501 18.2417 30.1751C18.2667 30.2002 18.2807 30.2342 18.2807 30.2696C18.2807 30.3051 18.2667 30.3391 18.2417 30.3641C18.2167 30.3892 18.1828 30.4033 18.1474 30.4033Z" fill="#353F58"/>
<path d="M32.8519 23.162L57.6328 23.162C57.6682 23.162 57.7021 23.1761 57.7271 23.2012C57.7521 23.2262 57.7661 23.2602 57.7661 23.2957C57.7661 23.3311 57.7521 23.3651 57.7271 23.3902C57.7021 23.4152 57.6682 23.4293 57.6328 23.4293L32.9852 23.4293L32.9852 25.9553L57.6328 25.9553C57.6682 25.9553 57.7021 25.9694 57.7271 25.9944C57.7521 26.0195 57.7661 26.0535 57.7661 26.0889C57.7661 26.1244 57.7521 26.1584 57.7271 26.1834C57.7021 26.2085 57.6682 26.2226 57.6328 26.2226L32.8519 26.2226C32.8166 26.2226 32.7827 26.2085 32.7577 26.1834C32.7327 26.1584 32.7187 26.1244 32.7187 26.0889L32.7187 23.2957C32.7187 23.2602 32.7327 23.2262 32.7577 23.2012C32.7827 23.1761 32.8166 23.162 32.8519 23.162Z" fill="#353F58"/>
<path d="M40.7041 23.162C40.7395 23.162 40.7734 23.1761 40.7984 23.2012C40.8234 23.2262 40.8374 23.2602 40.8374 23.2957L40.8374 26.0889C40.8374 26.1244 40.8234 26.1584 40.7984 26.1834C40.7734 26.2085 40.7395 26.2226 40.7041 26.2226C40.6688 26.2226 40.6349 26.2085 40.6099 26.1834C40.5849 26.1584 40.5708 26.1244 40.5708 26.0889L40.5708 23.2957C40.5708 23.2602 40.5849 23.2262 40.6099 23.2012C40.6349 23.1761 40.6688 23.162 40.7041 23.162Z" fill="#353F58"/>
<path d="M46.1919 23.162C46.2273 23.162 46.2612 23.1761 46.2862 23.2012C46.3112 23.2262 46.3252 23.2602 46.3252 23.2957L46.3252 26.0889C46.3252 26.1244 46.3112 26.1584 46.2862 26.1834C46.2612 26.2085 46.2273 26.2226 46.1919 26.2226C46.1566 26.2226 46.1227 26.2085 46.0977 26.1834C46.0727 26.1584 46.0586 26.1244 46.0586 26.0889L46.0586 23.2957C46.0586 23.2602 46.0727 23.2262 46.0977 23.2012C46.1227 23.1761 46.1566 23.162 46.1919 23.162Z" fill="#353F58"/>
<path d="M51.6797 23.162C51.7151 23.162 51.749 23.1761 51.774 23.2012C51.7989 23.2262 51.813 23.2602 51.813 23.2957L51.813 26.0889C51.813 26.1244 51.7989 26.1584 51.774 26.1834C51.749 26.2085 51.7151 26.2226 51.6797 26.2226C51.6444 26.2226 51.6105 26.2085 51.5855 26.1834C51.5605 26.1584 51.5464 26.1244 51.5464 26.0889L51.5464 23.2957C51.5464 23.2602 51.5605 23.2262 51.5855 23.2012C51.6105 23.1761 51.6444 23.162 51.6797 23.162Z" fill="#353F58"/>
<path d="M57.6328 23.162C57.6682 23.162 57.7021 23.1761 57.7271 23.2012C57.7521 23.2262 57.7661 23.2602 57.7661 23.2957L57.7661 26.0889C57.7661 26.1244 57.7521 26.1584 57.7271 26.1834C57.7021 26.2085 57.6682 26.2226 57.6328 26.2226C57.5975 26.2226 57.5636 26.2085 57.5386 26.1834C57.5136 26.1584 57.4996 26.1244 57.4996 26.0889L57.4996 23.2957C57.4996 23.2602 57.5136 23.2262 57.5386 23.2012C57.5636 23.1761 57.5975 23.162 57.6328 23.162Z" fill="#353F58"/>
<path d="M18.7092 26.2226L40.6393 26.2226C40.7519 26.2226 40.8433 26.163 40.8433 26.0896L40.8433 23.3095C40.8433 23.236 40.7519 23.1765 40.6393 23.1765L18.7092 23.1765C18.5965 23.1765 18.5052 23.236 18.5052 23.3095L18.5052 26.0896C18.5052 26.163 18.5965 26.2226 18.7092 26.2226Z" fill="#226E50"/>
<path d="M18.3843 28.0073C18.2709 28.2039 18.2079 28.4255 18.2008 28.6524C18.1563 29.49 18.1475 30.1849 18.1475 30.6082C18.1473 30.8969 18.2461 31.1769 18.4273 31.4012L18.8316 31.9001C18.9829 32.0865 19.1841 32.2257 19.4115 32.3015C19.6389 32.3772 19.8831 32.3863 20.1155 32.3278C20.3083 32.2781 20.6325 32.044 20.6325 32.044C20.8349 32.1832 21.0745 32.2577 21.3199 32.2578C21.5653 32.2578 21.8049 32.1835 22.0074 32.0445C22.156 32.1514 22.326 32.2245 22.5057 32.2588C22.6853 32.2931 22.8703 32.2878 23.0477 32.2431C23.5141 32.1229 23.9584 31.7353 24.0517 31.2586L24.1183 30.528L24.1134 30.524C24.0199 29.6342 23.8069 28.705 23.5497 28.1134C22.9322 26.7145 22.7474 26.3555 22.7474 26.3555" fill="white"/>
<path d="M19.8101 32.4994C19.6029 32.4995 19.3983 32.4533 19.2112 32.3642C19.0241 32.2751 18.859 32.1453 18.7281 31.9843L18.3239 31.4854C18.1229 31.2375 18.0135 30.9276 18.0142 30.6082C18.0142 30.1729 18.0234 29.4791 18.0675 28.6454C18.0756 28.3964 18.1452 28.1533 18.2701 27.938C18.2791 27.9229 18.2911 27.9097 18.3052 27.8991C18.3193 27.8886 18.3354 27.881 18.3524 27.8767C18.3695 27.8725 18.3873 27.8716 18.4047 27.8743C18.4221 27.8769 18.4388 27.883 18.4538 27.8922C18.4689 27.9013 18.4819 27.9134 18.4923 27.9276C18.5027 27.9419 18.5102 27.9581 18.5143 27.9752C18.5184 27.9924 18.519 28.0102 18.5163 28.0276C18.5135 28.045 18.5073 28.0617 18.498 28.0767C18.396 28.2544 18.3396 28.4547 18.3336 28.6596C18.2897 29.4874 18.2803 30.1761 18.2803 30.6082C18.2798 30.8665 18.3683 31.117 18.5308 31.3174L18.9346 31.8158C19.07 31.9823 19.2498 32.1067 19.4531 32.1744C19.6564 32.2421 19.8747 32.2504 20.0825 32.1982C20.2197 32.1628 20.4696 31.9966 20.5543 31.9354C20.576 31.9197 20.6019 31.911 20.6286 31.9103C20.6554 31.9096 20.6817 31.917 20.7042 31.9315C20.8847 32.0564 21.0987 32.1235 21.3181 32.1239C21.5374 32.1243 21.7517 32.0579 21.9325 31.9335C21.9551 31.9183 21.9817 31.9104 22.0089 31.9107C22.0361 31.9111 22.0625 31.9198 22.0846 31.9357C22.2173 32.0314 22.3694 32.0969 22.53 32.1276C22.6906 32.1583 22.856 32.1535 23.0146 32.1134C23.4595 31.9986 23.839 31.6316 23.9192 31.2392L23.9821 30.5491C23.9814 30.5454 23.9809 30.5416 23.9805 30.5378C23.8865 29.6442 23.6745 28.7356 23.427 28.1666C22.8204 26.7922 22.6304 26.4203 22.6286 26.4166C22.6127 26.3852 22.6098 26.3487 22.6206 26.3151C22.6314 26.2815 22.6551 26.2536 22.6863 26.2374C22.7176 26.2212 22.754 26.2181 22.7875 26.2287C22.8211 26.2393 22.8491 26.2628 22.8655 26.2941C22.873 26.3089 23.059 26.6727 23.6711 28.0591C23.9262 28.6456 24.1443 29.5706 24.2424 30.48C24.2497 30.4991 24.2525 30.5196 24.2507 30.54L24.184 31.2706C24.1836 31.2751 24.183 31.2795 24.1821 31.284C24.0843 31.7826 23.6314 32.2301 23.0803 32.3722C22.8989 32.4182 22.7101 32.4269 22.5253 32.3979C22.3404 32.3689 22.1633 32.3027 22.0046 32.2033C21.8937 32.2685 21.7743 32.3178 21.6498 32.3499C21.3059 32.4344 20.9427 32.3817 20.6369 32.2029C20.5234 32.2794 20.3063 32.4162 20.1482 32.4568C20.0377 32.4849 19.9241 32.4992 19.8101 32.4994Z" fill="#353F58"/>
<path d="M51.9735 30.6661C51.9385 30.6661 51.9049 30.6523 51.8799 30.6276C51.855 30.603 51.8407 30.5695 51.8402 30.5344L51.8106 28.4366C51.8101 28.4012 51.8236 28.367 51.8482 28.3415C51.8729 28.3161 51.9066 28.3015 51.9419 28.301C51.9773 28.3005 52.0114 28.3141 52.0367 28.3388C52.0621 28.3635 52.0766 28.3973 52.0771 28.4328L52.1068 30.5305C52.107 30.5481 52.1038 30.5655 52.0974 30.5818C52.0909 30.5981 52.0813 30.613 52.0691 30.6256C52.0569 30.6382 52.0424 30.6483 52.0263 30.6552C52.0102 30.6621 51.9929 30.6659 51.9754 30.6661H51.9735Z" fill="#353F58"/>
<path d="M50.858 30.7508C50.8232 30.7508 50.7898 30.7372 50.7649 30.7128C50.74 30.6884 50.7256 30.6553 50.7247 30.6204L50.6861 29.0312C50.6852 28.9957 50.6984 28.9614 50.7228 28.9357C50.7472 28.91 50.7808 28.8951 50.8161 28.8943C50.8515 28.8934 50.8857 28.9067 50.9113 28.9311C50.9369 28.9556 50.9518 28.9892 50.9526 29.0247L50.9913 30.6141C50.9922 30.6495 50.979 30.6838 50.9546 30.7095C50.9302 30.7352 50.8967 30.7501 50.8613 30.7509L50.858 30.7508Z" fill="#353F58"/>
<path d="M45.6918 18.7696L34.967 9.73538C34.6685 9.43997 34.3107 9.21157 33.9174 9.0653C33.5241 8.91902 33.1044 8.85822 32.6859 8.88692C32.6479 9.09003 32.2505 11.1144 31.0828 11.0987C30.5818 11.0918 30.0406 11.0811 29.6687 10.7415C29.3074 10.4118 29.1503 9.91955 29.1251 9.44063L25.3575 10.0396C24.9107 10.0985 24.4802 10.2464 24.0913 10.4745L13.6112 15.3054C13.2057 15.4922 12.845 15.7644 12.5537 16.1034C12.2624 16.4425 12.0472 16.8404 11.9229 17.2702C11.7986 17.7001 11.768 18.1517 11.8331 18.5944C11.8983 19.0371 12.0577 19.4606 12.3006 19.8361L17.8095 28.3585L23.6648 26.6611L19.4754 19.4663L24.1831 17.2967L25.0061 18.6767C25.3849 18.6884 35.2286 18.7997 35.8706 18.7584L35.8687 17.8848L36.7165 18.5989C37.0587 18.6169 44.2016 18.7446 45.6918 18.7696Z" fill="#32A261"/>
<path d="M35.8598 18.7847C35.8245 18.7847 35.7906 18.7706 35.7656 18.7455C35.7406 18.7205 35.7266 18.6865 35.7266 18.651V13.7283C35.7266 13.6928 35.7406 13.6588 35.7656 13.6338C35.7906 13.6087 35.8245 13.5946 35.8598 13.5946C35.8952 13.5946 35.9291 13.6087 35.9541 13.6338C35.9791 13.6588 35.9931 13.6928 35.9931 13.7283V18.651C35.9931 18.6865 35.9791 18.7205 35.9541 18.7455C35.9291 18.7706 35.8952 18.7847 35.8598 18.7847Z" fill="#353F58"/>
<path d="M30.0013 6.95484L29.245 8.93473C29.1506 9.1813 29.1198 9.44779 29.1556 9.70947C29.1913 9.97115 29.2923 10.2195 29.4494 10.4316L29.5293 10.5385C29.6952 10.7606 29.9169 10.9345 30.1719 11.0424C30.4268 11.1503 30.7058 11.1883 30.9802 11.1525C31.2546 11.1167 31.5145 11.0083 31.7335 10.8386C31.9524 10.6689 32.1223 10.4439 32.226 10.1866L32.7413 8.91285C33.3012 8.83637 33.8145 8.55905 34.1861 8.13223C34.5578 7.70542 34.7626 7.15803 34.7627 6.5914C34.7621 6.39768 34.7382 6.20473 34.6916 6.01671C34.5713 5.54391 34.3074 5.12031 33.9364 4.80455C33.9807 4.6224 34.003 4.43557 34.003 4.24808C34.0028 4.02971 33.9729 3.81239 33.9142 3.60211L31.2503 3.53217L30.7171 4.46771L29.9827 4.5561C29.0193 4.67193 28.6734 5.89589 29.4328 6.50155L30.0013 6.95484Z" fill="white"/>
<path d="M30.7832 11.299C30.7036 11.299 30.6242 11.2935 30.5454 11.2824C30.3237 11.2522 30.1101 11.1779 29.9173 11.0639C29.7245 10.95 29.5563 10.7986 29.4225 10.6187L29.3425 10.5118C29.1718 10.2818 29.0619 10.0122 29.023 9.7281C28.9842 9.44403 29.0177 9.15472 29.1204 8.88713L29.8419 6.99848L29.3498 6.60613C29.1605 6.4552 29.0199 6.25146 28.9457 6.02056C28.8716 5.78966 28.8672 5.54193 28.9332 5.30855C28.9991 5.07518 29.1325 4.86658 29.3164 4.70904C29.5003 4.55149 29.7266 4.45203 29.9668 4.42319L30.6347 4.343L31.1345 3.46585C31.1465 3.44491 31.1639 3.42759 31.1849 3.41574C31.2058 3.40389 31.2296 3.39795 31.2537 3.39854L33.9174 3.46844C33.946 3.46918 33.9736 3.4791 33.9961 3.49675C34.0186 3.5144 34.0348 3.53883 34.0424 3.56645C34.1046 3.7883 34.1361 4.01763 34.1361 4.24806C34.136 4.41891 34.1184 4.58929 34.0834 4.75651C34.4446 5.08359 34.7011 5.51062 34.8206 5.98372C34.8697 6.18254 34.895 6.38655 34.8958 6.59138C34.8942 7.17648 34.6867 7.74223 34.3099 8.18898C33.9332 8.63573 33.4112 8.93481 32.8361 9.03352L32.3493 10.2368C32.2348 10.5199 32.0466 10.767 31.8044 10.9523C31.5112 11.1773 31.1523 11.2992 30.7832 11.299ZM31.3262 3.66784L30.8327 4.53398C30.8223 4.5521 30.8079 4.56754 30.7906 4.57907C30.7733 4.59061 30.7535 4.59791 30.7328 4.6004L29.9984 4.68875C29.8106 4.71148 29.6336 4.7894 29.4898 4.91271C29.346 5.03602 29.2417 5.19922 29.1901 5.38177C29.1386 5.56433 29.142 5.75811 29.1999 5.93874C29.2578 6.11937 29.3677 6.2788 29.5158 6.39697L30.0844 6.85026C30.1066 6.86794 30.1226 6.89223 30.13 6.91963C30.1375 6.94703 30.1361 6.9761 30.126 7.00262L29.3692 8.98251C29.2826 9.20805 29.2543 9.45189 29.287 9.69132C29.3197 9.93076 29.4123 10.158 29.5561 10.3519L29.6356 10.4583C29.7873 10.6615 29.9902 10.8206 30.2234 10.9193C30.4566 11.0179 30.7118 11.0527 30.9628 11.0199C31.2138 10.9871 31.4516 10.888 31.6519 10.7327C31.8521 10.5774 32.0075 10.3715 32.1023 10.1362L32.6176 8.86253C32.6265 8.84072 32.6409 8.82163 32.6595 8.80721C32.678 8.79278 32.7001 8.78353 32.7233 8.78038C33.2507 8.70701 33.7339 8.44514 34.0841 8.04295C34.4343 7.64076 34.6279 7.12529 34.6292 6.59138C34.6288 6.40831 34.6062 6.22597 34.5619 6.04836C34.449 5.60254 34.2 5.20326 33.8497 4.90637C33.8308 4.89032 33.8168 4.86931 33.8091 4.8457C33.8015 4.8221 33.8006 4.79683 33.8064 4.77272C33.8894 4.43122 33.8906 4.07488 33.8098 3.73284L31.3262 3.66784Z" fill="#353F58"/>
<path d="M34.0423 3.57041C33.9001 3.06678 33.6026 2.62119 33.1924 2.29749C32.7823 1.97379 32.2804 1.78859 31.7589 1.76844C31.2373 1.74829 30.7227 1.89421 30.2889 2.1853C29.8551 2.47638 29.5243 2.8977 29.344 3.38887C29.3208 3.44658 29.3012 3.50565 29.2852 3.56574C29.2231 3.7863 29.1915 4.0144 29.1914 4.24361C29.1914 4.31743 29.1951 4.39062 29.2017 4.46377C29.2054 4.46377 29.2087 4.46284 29.2126 4.46284C29.4634 4.46337 29.7181 4.4063 29.9655 4.47175C30.175 4.52699 30.3561 4.66741 30.5137 4.81153C30.7891 5.0635 31.0784 5.45238 30.9937 5.84277C31.0222 5.83543 31.0475 5.81874 31.0654 5.79536C31.0834 5.77199 31.093 5.74326 31.0928 5.71375V4.4619C31.0931 4.27056 31.169 4.08712 31.3039 3.95182C31.4388 3.81653 31.6217 3.74042 31.8125 3.74019H33.9139C33.9345 3.7402 33.9548 3.73542 33.9732 3.72624C33.9917 3.71706 34.0077 3.70373 34.0201 3.68728C34.0326 3.67084 34.041 3.65173 34.0449 3.63145C34.0487 3.61117 34.0478 3.59028 34.0423 3.57041Z" fill="#226E50"/>
<path d="M19.4754 19.6C19.4502 19.6 19.4255 19.5928 19.4042 19.5793C19.3829 19.5657 19.3658 19.5464 19.355 19.5236L18.8263 18.4054C18.8188 18.3895 18.8145 18.3723 18.8136 18.3548C18.8128 18.3373 18.8153 18.3197 18.8212 18.3032C18.8331 18.2698 18.8577 18.2425 18.8897 18.2273C18.9216 18.2121 18.9583 18.2103 18.9916 18.2222C19.0248 18.2341 19.0521 18.2588 19.0672 18.2908L19.4642 19.1306L19.7913 18.2991C19.7976 18.2826 19.8071 18.2676 19.8193 18.2549C19.8314 18.2422 19.846 18.232 19.8621 18.2249C19.8782 18.2178 19.8955 18.214 19.9131 18.2137C19.9306 18.2134 19.9481 18.2165 19.9644 18.223C19.9808 18.2295 19.9957 18.2391 20.0083 18.2513C20.0209 18.2636 20.031 18.2782 20.0379 18.2944C20.0449 18.3106 20.0486 18.328 20.0488 18.3456C20.049 18.3632 20.0458 18.3807 20.0393 18.3971L19.5994 19.5153C19.5899 19.5395 19.5735 19.5605 19.5523 19.5755C19.5311 19.5906 19.5059 19.599 19.4799 19.5999L19.4754 19.6Z" fill="#353F58"/>
<path d="M25.393 17.6932C25.3835 17.6932 25.374 17.6922 25.3647 17.6902L24.1563 17.4273C24.129 17.4214 24.1042 17.407 24.0855 17.3861C24.0668 17.3653 24.0551 17.3391 24.0521 17.3112C24.049 17.2833 24.0548 17.2552 24.0686 17.2308C24.0824 17.2064 24.1034 17.187 24.1288 17.1753L25.6349 16.4803C25.667 16.4655 25.7037 16.4641 25.7368 16.4764C25.77 16.4887 25.7969 16.5137 25.8117 16.5459C25.8264 16.5781 25.8279 16.6148 25.8156 16.6481C25.8033 16.6813 25.7784 16.7083 25.7463 16.7232L24.6026 17.2508L25.4211 17.429C25.4532 17.4361 25.4815 17.4548 25.5007 17.4815C25.5199 17.5082 25.5285 17.541 25.525 17.5738C25.5216 17.6065 25.5062 17.6368 25.4818 17.6588C25.4574 17.6808 25.4258 17.6931 25.393 17.6932Z" fill="#353F58"/>
<path d="M59.9968 30.4033H53.1552C53.1198 30.4033 53.0859 30.3892 53.0609 30.3642C53.0359 30.3391 53.0219 30.3051 53.0219 30.2697C53.0219 30.2342 53.0359 30.2002 53.0609 30.1752C53.0859 30.1501 53.1198 30.136 53.1552 30.136H59.9968C60.6505 30.1353 61.2772 29.8745 61.7395 29.411C62.2017 28.9475 62.4617 28.319 62.4625 27.6635V21.3018C62.4597 20.6473 62.1989 20.0205 61.737 19.5581C61.275 19.0957 60.6495 18.8353 59.9968 18.8337H46.5824L24.4227 18.8128L24.3383 18.8306C24.3292 18.8325 24.3199 18.8335 24.3105 18.8335H20.813C20.7776 18.8335 20.7437 18.8194 20.7187 18.7944C20.6937 18.7693 20.6797 18.7353 20.6797 18.6999C20.6797 18.6644 20.6937 18.6304 20.7187 18.6054C20.7437 18.5803 20.7776 18.5662 20.813 18.5662H24.2966L24.381 18.5484C24.3901 18.5465 24.3994 18.5455 24.4087 18.5455L46.5825 18.5664H59.9968C60.7201 18.5682 61.4132 18.8567 61.9251 19.3691C62.437 19.8815 62.726 20.5761 62.729 21.3013V27.6635C62.7282 28.3899 62.4401 29.0863 61.9279 29.5999C61.4157 30.1136 60.7212 30.4025 59.9968 30.4033Z" fill="#353F58"/>
<path d="M40.276 33.4193C40.2505 33.4193 40.2255 33.4119 40.204 33.3981L38.8712 32.5383C38.8565 32.5288 38.8438 32.5165 38.8338 32.502C38.8238 32.4876 38.8168 32.4714 38.8131 32.4542C38.8056 32.4196 38.8121 32.3833 38.8313 32.3535C38.8504 32.3237 38.8805 32.3027 38.9151 32.2952C38.9496 32.2877 38.9858 32.2942 39.0155 32.3134L40.3483 33.1732C40.3725 33.1889 40.391 33.2119 40.4011 33.239C40.4111 33.2661 40.4122 33.2957 40.404 33.3234C40.3959 33.3511 40.379 33.3754 40.3559 33.3927C40.3329 33.41 40.3048 33.4193 40.276 33.4193Z" fill="#353F58"/>
<path d="M18.9957 30.7062C18.9638 30.7062 18.933 30.6947 18.9088 30.6738C18.8847 30.6529 18.8688 30.624 18.8641 30.5924C18.6603 29.2265 18.2907 28.2711 18.287 28.2616C18.2741 28.2286 18.2748 28.1918 18.289 28.1593C18.3031 28.1268 18.3295 28.1013 18.3624 28.0883C18.3954 28.0754 18.432 28.0761 18.4644 28.0903C18.4968 28.1044 18.5223 28.131 18.5352 28.164C18.5508 28.2038 18.9191 29.155 19.1277 30.5528C19.1303 30.5701 19.1294 30.5878 19.1252 30.6049C19.121 30.6219 19.1134 30.6379 19.103 30.652C19.0926 30.6662 19.0796 30.6781 19.0646 30.6871C19.0496 30.6962 19.0329 30.7022 19.0156 30.7048C19.009 30.7057 19.0024 30.7062 18.9957 30.7062Z" fill="#353F58"/>
<path d="M31.8215 5.13012C31.9564 5.13012 32.0658 5.02042 32.0658 4.8851C32.0658 4.74978 31.9564 4.64008 31.8215 4.64008C31.6865 4.64008 31.5771 4.74978 31.5771 4.8851C31.5771 5.02042 31.6865 5.13012 31.8215 5.13012Z" fill="#353F58"/>
<path d="M33.7321 5.13012C33.8671 5.13012 33.9765 5.02042 33.9765 4.8851C33.9765 4.74978 33.8671 4.64008 33.7321 4.64008C33.5972 4.64008 33.4878 4.74978 33.4878 4.8851C33.4878 5.02042 33.5972 5.13012 33.7321 5.13012Z" fill="#353F58"/>
<path d="M32.4214 9.06837C31.9057 9.07052 31.4025 8.90885 30.984 8.60652C30.9554 8.58578 30.9361 8.55447 30.9304 8.51948C30.9248 8.48449 30.9332 8.44867 30.9539 8.41992C30.9746 8.39117 31.0058 8.37183 31.0407 8.36616C31.0756 8.36049 31.1113 8.36896 31.14 8.38969C31.5131 8.65911 31.9617 8.80312 32.4214 8.80107C32.5336 8.80118 32.6457 8.79277 32.7566 8.7759C32.7914 8.77088 32.8267 8.77983 32.8549 8.80079C32.8831 8.82176 32.902 8.85305 32.9073 8.88787C32.9126 8.92268 32.9041 8.9582 32.8834 8.9867C32.8628 9.0152 32.8318 9.03439 32.7971 9.04008C32.6728 9.05903 32.5472 9.06849 32.4214 9.06837Z" fill="#353F58"/>
<path d="M33.4876 5.90084C33.481 5.90083 33.4744 5.90034 33.4679 5.89937L32.6327 5.77463C32.598 5.76905 32.567 5.75 32.5462 5.7216C32.5255 5.6932 32.5168 5.65776 32.522 5.62295C32.5271 5.58815 32.5458 5.55679 32.5739 5.5357C32.602 5.5146 32.6372 5.50546 32.672 5.51027L33.284 5.60168L32.945 4.68663C32.9327 4.6534 32.9341 4.61662 32.9488 4.5844C32.9635 4.55217 32.9904 4.52713 33.0236 4.51478C33.0567 4.50243 33.0934 4.50379 33.1255 4.51856C33.1576 4.53332 33.1826 4.56029 33.1949 4.59352L33.6125 5.72063C33.62 5.74085 33.6225 5.76258 33.6198 5.78397C33.6171 5.80537 33.6093 5.82579 33.597 5.84349C33.5847 5.8612 33.5684 5.87566 33.5493 5.88564C33.5303 5.89563 33.5091 5.90084 33.4876 5.90084Z" fill="#353F58"/>
<path d="M30.0013 6.95492C29.743 7.02303 29.47 7.00838 29.2204 6.91302C28.9708 6.81767 28.7573 6.6464 28.6097 6.42321C28.4621 6.20002 28.3878 5.9361 28.3973 5.66846C28.4068 5.40081 28.4996 5.14286 28.6626 4.93075C28.8257 4.71864 29.0508 4.56301 29.3065 4.48568C29.5622 4.40835 29.8356 4.41319 30.0884 4.49953C30.3412 4.58587 30.5608 4.74937 30.7163 4.96712C30.8717 5.18487 30.9554 5.44595 30.9554 5.71376" fill="white"/>
<path d="M29.6759 7.13043C29.3965 7.13043 29.1234 7.04734 28.8911 6.89168C28.6587 6.73601 28.4777 6.51475 28.3707 6.25589C28.2638 5.99702 28.2358 5.71217 28.2903 5.43736C28.3448 5.16255 28.4794 4.91012 28.677 4.712C28.8745 4.51387 29.1263 4.37894 29.4003 4.32428C29.6744 4.26962 29.9584 4.29767 30.2166 4.4049C30.4747 4.51212 30.6954 4.6937 30.8506 4.92668C31.0058 5.15965 31.0887 5.43355 31.0887 5.71374C31.0887 5.74919 31.0746 5.78318 31.0496 5.80825C31.0247 5.83331 30.9908 5.84739 30.9554 5.84739C30.9201 5.84739 30.8862 5.83331 30.8612 5.80825C30.8362 5.78318 30.8221 5.74919 30.8221 5.71374C30.8218 5.47424 30.7468 5.24084 30.6076 5.04623C30.4684 4.85161 30.272 4.70553 30.0458 4.62845C29.8197 4.55138 29.5752 4.54716 29.3466 4.61639C29.1179 4.68561 28.9166 4.82483 28.7708 5.01452C28.625 5.20422 28.542 5.43489 28.5335 5.67424C28.525 5.91359 28.5913 6.14962 28.7232 6.34927C28.8551 6.54892 29.046 6.7022 29.2692 6.78763C29.4923 6.87305 29.7365 6.88635 29.9675 6.82566C30.0012 6.81804 30.0365 6.82384 30.0661 6.84183C30.0956 6.85982 30.117 6.88861 30.1257 6.92212C30.1345 6.95562 30.13 6.99123 30.1131 7.02144C30.0962 7.05165 30.0682 7.0741 30.0351 7.08405C29.9179 7.11487 29.7971 7.13046 29.6759 7.13043Z" fill="#353F58"/>
<path d="M29.5293 6.22159C29.5021 6.22159 29.4756 6.21325 29.4533 6.1977C29.431 6.18214 29.4139 6.16012 29.4044 6.13458C29.395 6.10904 29.3935 6.0812 29.4002 6.0548C29.407 6.02839 29.4216 6.00469 29.4422 5.98686L29.8109 5.66748L29.0975 5.46358C29.0637 5.45371 29.0351 5.43081 29.0181 5.3999C29.0011 5.36899 28.9969 5.33257 29.0066 5.29861C29.0162 5.26464 29.0389 5.23589 29.0696 5.21863C29.1004 5.20138 29.1367 5.19702 29.1706 5.20652L30.1213 5.47828C30.1444 5.48489 30.1653 5.49765 30.1818 5.51519C30.1982 5.53274 30.2097 5.55443 30.2149 5.57795C30.22 5.60148 30.2188 5.62598 30.2112 5.64885C30.2037 5.67173 30.1901 5.69212 30.1719 5.70789L29.6166 6.18902C29.5924 6.21009 29.5614 6.22166 29.5293 6.22159Z" fill="#353F58"/>
<path d="M32.646 6.68193C32.691 7.6549 33.7705 7.54223 33.7962 6.6391L32.646 6.68193Z" fill="white"/>
<path d="M33.1942 7.49636C32.8738 7.49636 32.5407 7.24725 32.5148 6.68785C32.514 6.67055 32.5166 6.65327 32.5226 6.637C32.5285 6.62073 32.5377 6.60579 32.5494 6.59305C32.5612 6.5803 32.5754 6.57001 32.5912 6.56276C32.607 6.55551 32.6241 6.55144 32.6414 6.55079L33.7916 6.50797C33.8097 6.50729 33.8276 6.51031 33.8444 6.51683C33.8612 6.52335 33.8765 6.53323 33.8893 6.54586C33.9021 6.55849 33.9121 6.5736 33.9188 6.59026C33.9255 6.60692 33.9287 6.62477 33.9282 6.6427C33.9124 7.19896 33.5498 7.49313 33.1997 7.49623L33.1942 7.49636ZM32.792 6.80773C32.8467 7.12178 33.0378 7.23536 33.1974 7.23414C33.3927 7.23244 33.5946 7.07515 33.6503 6.77574L32.792 6.80773Z" fill="#353F58"/>
<path d="M71.8602 31.9109C72.2412 31.9109 72.55 31.6022 72.55 31.2214C72.55 30.8406 72.2412 30.5319 71.8602 30.5319C71.4792 30.5319 71.1704 30.8406 71.1704 31.2214C71.1704 31.6022 71.4792 31.9109 71.8602 31.9109Z" fill="white"/>
<path d="M71.8604 32.0444C71.6976 32.0444 71.5384 31.9961 71.403 31.9057C71.2676 31.8152 71.1621 31.6867 71.0998 31.5364C71.0375 31.386 71.0212 31.2205 71.0529 31.0609C71.0847 30.9013 71.1631 30.7546 71.2782 30.6395C71.3934 30.5244 71.5401 30.4461 71.6998 30.4143C71.8595 30.3826 72.025 30.3989 72.1755 30.4611C72.3259 30.5234 72.4545 30.6289 72.545 30.7642C72.6354 30.8996 72.6837 31.0587 72.6837 31.2214C72.6835 31.4396 72.5966 31.6488 72.4423 31.8031C72.288 31.9573 72.0787 32.0441 71.8604 32.0444ZM71.8604 30.6654C71.7504 30.6654 71.6428 30.698 71.5514 30.7591C71.4599 30.8202 71.3886 30.907 71.3465 31.0086C71.3044 31.1102 71.2934 31.222 71.3148 31.3299C71.3363 31.4378 71.3893 31.5368 71.4671 31.6146C71.5449 31.6924 71.644 31.7453 71.7519 31.7668C71.8598 31.7882 71.9716 31.7772 72.0733 31.7351C72.1749 31.6931 72.2618 31.6218 72.3229 31.5303C72.3841 31.4389 72.4167 31.3314 72.4167 31.2214C72.4165 31.074 72.3579 30.9327 72.2536 30.8284C72.1493 30.7242 72.0079 30.6656 71.8604 30.6654Z" fill="#353F58"/>
<path d="M72.2169 29.5044L71.6561 30.5631L70.597 30.0026C70.2656 29.8264 70.0177 29.5262 69.9076 29.1676C69.7975 28.809 69.8341 28.4214 70.0095 28.0898L70.5703 27.0311L71.6294 27.5916C71.7942 27.6781 71.9402 27.7963 72.0591 27.9394C72.1779 28.0826 72.2672 28.2478 72.3218 28.4257C72.3764 28.6035 72.3953 28.7904 72.3773 28.9755C72.3593 29.1606 72.3047 29.3404 72.2169 29.5044Z" fill="white"/>
<path d="M71.6556 30.6965C71.6339 30.6965 71.6125 30.6911 71.5933 30.6809L70.5342 30.1204C70.1716 29.9278 69.9003 29.5992 69.7798 29.2069C69.6592 28.8145 69.6993 28.3904 69.8911 28.0275L70.4519 26.9688C70.4601 26.9533 70.4712 26.9396 70.4847 26.9284C70.4982 26.9172 70.5138 26.9088 70.5306 26.9036C70.5474 26.8985 70.565 26.8966 70.5824 26.8983C70.5999 26.8999 70.6169 26.905 70.6324 26.9132L71.6915 27.4737C71.8718 27.5683 72.0316 27.6977 72.1617 27.8544C72.2917 28.0111 72.3894 28.192 72.4491 28.3866C72.5089 28.5812 72.5295 28.7857 72.5098 28.9883C72.4901 29.1909 72.4305 29.3876 72.3343 29.5671L71.7737 30.6253C71.7624 30.6468 71.7454 30.6648 71.7246 30.6773C71.7038 30.6899 71.6799 30.6965 71.6556 30.6965ZM70.6254 27.2115L70.1271 28.1521C69.9683 28.4524 69.9351 28.8035 70.0348 29.1283C70.1345 29.4531 70.359 29.7251 70.6591 29.8846L71.6002 30.3829L72.0987 29.4421L72.099 29.4416C72.1785 29.2931 72.2279 29.1303 72.2442 28.9627C72.2605 28.795 72.2434 28.6258 72.194 28.4648C72.1445 28.3038 72.0636 28.1542 71.956 28.0246C71.8484 27.895 71.7162 27.788 71.5669 27.7097L70.6254 27.2115Z" fill="#353F58"/>
<path d="M78.5318 29.3265C78.1447 29.2197 77.2368 28.2099 77.2368 28.2099C77.2368 28.2099 78.5363 27.814 78.9235 27.9208C79.11 27.9727 79.2682 28.0965 79.3633 28.2651C79.4585 28.4336 79.4827 28.6329 79.4308 28.8194C79.3789 29.0058 79.255 29.1639 79.0864 29.259C78.9178 29.3541 78.7183 29.3784 78.5318 29.3265Z" fill="#226E50"/>
<path d="M75.5546 28.4991C75.9418 28.6059 77.2413 28.21 77.2413 28.21C77.2413 28.21 76.3334 27.2047 75.9462 27.0935C75.7597 27.0415 75.5603 27.0658 75.3917 27.1609C75.2231 27.256 75.0992 27.4142 75.0473 27.6006C74.9953 27.787 75.0196 27.9863 75.1148 28.1549C75.2099 28.3234 75.3681 28.4472 75.5546 28.4991Z" fill="#226E50"/>
<path d="M79.6397 25.1718L77.597 26.9155L76.7515 24.3666L79.6397 25.1718Z" fill="#226E50"/>
<path d="M74.2595 36.6217C74.2241 36.6217 74.1901 36.6076 74.1651 36.5826C74.14 36.5575 74.126 36.5236 74.126 36.4882V32.1511C74.126 32.1158 74.14 32.0818 74.1651 32.0568C74.1901 32.0318 74.2241 32.0177 74.2595 32.0177C74.2949 32.0177 74.3289 32.0318 74.3539 32.0568C74.3789 32.0818 74.393 32.1158 74.393 32.1511V36.4882C74.393 36.5236 74.3789 36.5575 74.3539 36.5826C74.3289 36.6076 74.2949 36.6217 74.2595 36.6217Z" fill="#353F58"/>
<path d="M74.2594 30.6165C74.2356 30.6165 74.2123 30.6102 74.1918 30.5982C74.1712 30.5861 74.1543 30.5689 74.1427 30.5481L73.3817 29.1869C73.3732 29.1716 73.3677 29.1548 73.3657 29.1374C73.3636 29.12 73.365 29.1023 73.3698 29.0855C73.3746 29.0686 73.3826 29.0529 73.3935 29.0391C73.4043 29.0253 73.4178 29.0139 73.4331 29.0053C73.464 28.988 73.5005 28.9837 73.5346 28.9934C73.5687 29.003 73.5975 29.0258 73.6148 29.0567L74.3758 30.4179C74.3872 30.4382 74.393 30.4611 74.3928 30.4843C74.3926 30.5076 74.3863 30.5304 74.3745 30.5505C74.3627 30.5706 74.3459 30.5872 74.3257 30.5988C74.3055 30.6104 74.2827 30.6165 74.2594 30.6165Z" fill="#353F58"/>
<path d="M74.2595 30.6165C74.2241 30.6165 74.1901 30.6024 74.1651 30.5774C74.14 30.5524 74.126 30.5184 74.126 30.483V28.8639C74.126 28.8285 74.14 28.7945 74.1651 28.7695C74.1901 28.7445 74.2241 28.7304 74.2595 28.7304C74.2949 28.7304 74.3289 28.7445 74.3539 28.7695C74.3789 28.7945 74.393 28.8285 74.393 28.8639V29.9707L74.9039 29.0567C74.9212 29.0258 74.9501 29.0031 74.9841 28.9934C75.0182 28.9838 75.0547 28.9881 75.0856 29.0054C75.1165 29.0226 75.1393 29.0515 75.149 29.0855C75.1586 29.1196 75.1543 29.1561 75.137 29.187L74.376 30.5481C74.3644 30.5689 74.3475 30.5861 74.327 30.5981C74.3066 30.6101 74.2832 30.6165 74.2595 30.6165Z" fill="#353F58"/>
<path d="M72.871 31.8442V31.3549C72.8717 30.9269 72.7239 30.5118 72.4527 30.1806L72.2524 29.9359H76.2621L76.0619 30.1806C75.7914 30.5122 75.6436 30.927 75.6436 31.3549V31.8442C75.6437 32.0259 75.6081 32.2059 75.5386 32.3738C75.4691 32.5418 75.3671 32.6943 75.2386 32.8228C75.11 32.9513 74.9574 33.0532 74.7894 33.1227C74.6214 33.1922 74.4413 33.2278 74.2595 33.2276C73.8919 33.2282 73.5391 33.0827 73.2787 32.8233C73.0183 32.5639 72.8717 32.2117 72.871 31.8442Z" fill="#FFC700"/>
<path d="M73.4749 36.6216C73.4464 36.6216 73.4185 36.6124 73.3956 36.5954C73.3726 36.5784 73.3557 36.5545 73.3473 36.5272L71.0298 28.9652C71.0194 28.9313 71.0229 28.8947 71.0395 28.8635C71.0561 28.8322 71.0845 28.8088 71.1183 28.7985C71.1522 28.7881 71.1888 28.7916 71.22 28.8082C71.2513 28.8248 71.2747 28.8531 71.2851 28.887L73.6026 36.449C73.6087 36.469 73.6101 36.4901 73.6066 36.5107C73.6031 36.5313 73.5948 36.5507 73.5823 36.5675C73.5699 36.5843 73.5537 36.5979 73.5351 36.6073C73.5164 36.6167 73.4958 36.6216 73.4749 36.6216Z" fill="#353F58"/>
<path d="M70.5703 27.1646C70.5416 27.1646 70.5137 27.1554 70.4907 27.1383C70.4677 27.1212 70.4508 27.0972 70.4425 27.0698L70.1666 26.1579C70.1612 26.141 70.1591 26.1232 70.1606 26.1056C70.1621 26.0879 70.1672 26.0707 70.1754 26.055C70.1836 26.0393 70.1949 26.0254 70.2086 26.0141C70.2222 26.0028 70.238 25.9943 70.255 25.9892C70.272 25.984 70.2898 25.9823 70.3075 25.9842C70.3251 25.986 70.3422 25.9913 70.3578 25.9999C70.3733 26.0084 70.387 26.0199 70.3981 26.0338C70.4091 26.0476 70.4173 26.0636 70.4221 26.0806L70.6981 26.9925C70.7041 27.0125 70.7054 27.0335 70.7018 27.0541C70.6982 27.0746 70.6899 27.094 70.6775 27.1107C70.6651 27.1275 70.6489 27.141 70.6303 27.1504C70.6116 27.1598 70.5911 27.1646 70.5703 27.1646Z" fill="#353F58"/>
<path d="M70.5701 27.1646C70.551 27.1647 70.5321 27.1606 70.5147 27.1527C70.4973 27.1448 70.4818 27.1332 70.4693 27.1188L69.8418 26.3982C69.8302 26.385 69.8213 26.3696 69.8157 26.353C69.81 26.3363 69.8077 26.3187 69.8089 26.3012C69.8101 26.2837 69.8147 26.2665 69.8225 26.2508C69.8303 26.235 69.8412 26.221 69.8544 26.2094C69.8677 26.1979 69.8831 26.1891 69.8998 26.1835C69.9165 26.1779 69.9341 26.1757 69.9516 26.177C69.9692 26.1782 69.9863 26.1829 70.002 26.1908C70.0177 26.1987 70.0317 26.2096 70.0432 26.2229L70.6707 26.9435C70.6875 26.9628 70.6984 26.9866 70.7021 27.0119C70.7058 27.0373 70.7021 27.0631 70.6915 27.0864C70.6809 27.1097 70.6638 27.1295 70.6423 27.1434C70.6208 27.1572 70.5957 27.1646 70.5701 27.1646Z" fill="#353F58"/>
<path d="M70.5702 27.1646C70.5646 27.1646 70.5589 27.1643 70.5533 27.1636C70.5359 27.1614 70.5191 27.1558 70.5039 27.1471C70.4886 27.1384 70.4753 27.1268 70.4645 27.1129C70.4538 27.0991 70.4459 27.0832 70.4412 27.0663C70.4366 27.0494 70.4354 27.0318 70.4376 27.0144L70.5577 26.0669C70.5622 26.0318 70.5804 25.9999 70.6084 25.9782C70.6364 25.9565 70.6719 25.9468 70.707 25.9513C70.7421 25.9557 70.774 25.9739 70.7957 26.0019C70.8174 26.0299 70.8271 26.0653 70.8227 26.1004L70.7025 27.0479C70.6984 27.0801 70.6827 27.1097 70.6584 27.1312C70.6341 27.1527 70.6027 27.1645 70.5702 27.1646Z" fill="#353F58"/>
<path d="M74.1165 44.8998C73.334 44.8998 72.5835 44.5891 72.0302 44.036C71.4769 43.4829 71.166 42.7328 71.166 41.9506C71.166 41.1684 71.4769 40.4183 72.0302 39.8652C72.5835 39.3121 73.334 39.0014 74.1165 39.0014H74.3791C75.1616 39.0014 75.9121 39.3121 76.4655 39.8652C77.0188 40.4183 77.3296 41.1684 77.3296 41.9506C77.3296 42.7328 77.0188 43.4829 76.4655 44.036C75.9121 44.5891 75.1616 44.8998 74.3791 44.8998H74.1165Z" fill="white"/>
<path d="M74.3793 45.0333H74.1168C73.2988 45.0333 72.5144 44.7085 71.936 44.1304C71.3576 43.5523 71.0327 42.7682 71.0327 41.9506C71.0327 41.1331 71.3576 40.349 71.936 39.7709C72.5144 39.1928 73.2988 38.868 74.1168 38.868H74.3793C75.1973 38.868 75.9817 39.1928 76.5601 39.7709C77.1384 40.349 77.4634 41.1331 77.4634 41.9506C77.4634 42.7682 77.1384 43.5523 76.5601 44.1304C75.9817 44.7085 75.1973 45.0333 74.3793 45.0333ZM74.1168 39.1349C73.3696 39.1349 72.6531 39.4315 72.1248 39.9596C71.5965 40.4876 71.2997 41.2038 71.2997 41.9506C71.2997 42.6974 71.5965 43.4136 72.1248 43.9417C72.6531 44.4697 73.3696 44.7664 74.1168 44.7664H74.3793C75.1264 44.7664 75.843 44.4697 76.3713 43.9417C76.8996 43.4136 77.1963 42.6974 77.1963 41.9506C77.1963 41.2038 76.8996 40.4876 76.3713 39.9596C75.843 39.4315 75.1264 39.1349 74.3793 39.1349H74.1168Z" fill="#353F58"/>
<path d="M74.2503 38.9303L72.3589 36.4882H76.1416L74.2503 38.9303Z" fill="white"/>
<path d="M74.2504 39.0637C74.2301 39.0637 74.2099 39.0591 74.1916 39.0501C74.1733 39.0411 74.1573 39.0281 74.1449 39.012L72.2535 36.5699C72.2382 36.5501 72.2288 36.5265 72.2263 36.5017C72.2237 36.4769 72.2282 36.4518 72.2392 36.4294C72.2502 36.407 72.2673 36.3881 72.2885 36.3749C72.3096 36.3617 72.3341 36.3547 72.3591 36.3547H76.1418C76.1668 36.3547 76.1912 36.3617 76.2124 36.3749C76.2336 36.3881 76.2507 36.407 76.2617 36.4294C76.2727 36.4518 76.2772 36.4769 76.2746 36.5017C76.2721 36.5265 76.2627 36.5502 76.2474 36.5699L74.356 39.012C74.3435 39.0281 74.3275 39.0411 74.3092 39.0501C74.2909 39.0591 74.2708 39.0637 74.2504 39.0637ZM72.6311 36.6216L74.2504 38.7123L75.8696 36.6216H72.6311Z" fill="#353F58"/>
<path d="M74.9324 36.6216C74.9118 36.6216 74.8915 36.6169 74.8731 36.6077C74.8546 36.5986 74.8386 36.5853 74.8261 36.569C74.8136 36.5526 74.8051 36.5336 74.8012 36.5134C74.7973 36.4932 74.7982 36.4724 74.8037 36.4526L77.5288 26.6623C77.5335 26.6454 77.5415 26.6296 77.5523 26.6158C77.5631 26.602 77.5765 26.5905 77.5918 26.5818C77.607 26.5732 77.6239 26.5677 77.6413 26.5656C77.6587 26.5634 77.6763 26.5648 77.6932 26.5695C77.7101 26.5742 77.7259 26.5821 77.7397 26.5929C77.7535 26.6037 77.7651 26.6171 77.7737 26.6324C77.7823 26.6477 77.7879 26.6645 77.79 26.6819C77.7921 26.6993 77.7908 26.7169 77.7861 26.7338L75.0609 36.5238C75.0532 36.5519 75.0364 36.5767 75.0131 36.5943C74.9899 36.612 74.9616 36.6216 74.9324 36.6216Z" fill="#353F58"/>
<path d="M81.441 45.043H4.2206C4.13959 45.043 4.07764 44.9971 4.07764 44.937C4.07764 44.8769 4.13959 44.831 4.2206 44.831H81.441C81.522 44.831 81.584 44.8769 81.584 44.937C81.584 44.9971 81.522 45.043 81.441 45.043Z" fill="#353F58"/>
</svg>
